<?xml version="1.0" encoding="UTF-8"?>
<svg version="1.1" xmlns="http://www.w3.org/2000/svg" width="96" height="96">
<path d="M0 0 C2.68342311 2.68342311 3.54069015 4.70403667 4.375 8.375 C2.065 8.705 -0.245 9.035 -2.625 9.375 C-2.99625 8.735625 -3.3675 8.09625 -3.75 7.4375 C-5.52235079 5.14609573 -5.52235079 5.14609573 -8.5 4.4375 C-12.40094567 4.35948109 -13.77500724 4.68334017 -16.625 7.375 C-19.16049977 13.29917718 -18.96873331 18.46471599 -16.625 24.375 C-14.44608941 26.5831584 -14.44608941 26.5831584 -11.625 27.375 C-8.0908688 27.12256206 -6.62183874 26.37289249 -3.625 24.375 C-2.89534634 21.81217258 -2.89534634 21.81217258 -2.625 19.375 C-5.265 19.375 -7.905 19.375 -10.625 19.375 C-10.625 17.725 -10.625 16.075 -10.625 14.375 C-5.675 14.375 -0.725 14.375 4.375 14.375 C4.478125 16.788125 4.58125 19.20125 4.6875 21.6875 C4.75578003 22.82119019 4.75578003 22.82119019 4.82543945 23.9777832 C4.86328125 25.80078125 4.86328125 25.80078125 4.375 29.375 C-1.45415116 34.1691595 -8.42302955 34.01869943 -15.625 33.375 C-19.96402772 32.16715009 -22.75524837 29.70711344 -25.0625 25.875 C-27.62672101 19.89925017 -28.00528854 13.04598017 -25.70703125 6.93359375 C-20.3163746 -2.53930774 -9.65980258 -4.33025633 0 0 Z " fill="#FFFFFF" transform="translate(58.625,32.625)"/>
<path d="M0 0 C7.59 0 15.18 0 23 0 C23 1.65 23 3.3 23 5 C18.05 5 13.1 5 8 5 C8 7.97 8 10.94 8 14 C12.29 14 16.58 14 21 14 C21 15.65 21 17.3 21 19 C16.71 19 12.42 19 8 19 C8 23.62 8 28.24 8 33 C5.36 33 2.72 33 0 33 C0 22.11 0 11.22 0 0 Z " fill="#FFFFFF" transform="translate(68,32)"/>
<path d="M0 0 C2.31 0 4.62 0 7 0 C7.11625936 4.56228541 7.18727408 9.12418928 7.25 13.6875 C7.30027344 15.62786133 7.30027344 15.62786133 7.3515625 17.60742188 C7.36445313 18.85458984 7.37734375 20.10175781 7.390625 21.38671875 C7.41157227 22.53358154 7.43251953 23.68044434 7.45410156 24.86206055 C6.90384899 28.66442415 5.65728809 30.28125209 3 33 C-0.70788386 34.85394193 -4.95291317 34.45179743 -9 34 C-12.0625 32.375 -12.0625 32.375 -14 30 C-14.8125 26.75 -14.8125 26.75 -15 24 C-12.29120665 22.64560332 -9.99066732 22.93498549 -7 23 C-6.34 24.65 -5.68 26.3 -5 28 C-3.68 28 -2.36 28 -1 28 C-0.67 18.76 -0.34 9.52 0 0 Z " fill="#FFFFFF" transform="translate(19,32)"/>
</svg>
